<?xml version="1.0" standalone="no"?>
<!DOCTYPE svg PUBLIC "-//W3C//DTD SVG 20010904//EN"
 "http://www.w3.org/TR/2001/REC-SVG-20010904/DTD/svg10.dtd">
<svg version="1.0" xmlns="http://www.w3.org/2000/svg"
 width="250.000000pt" height="250.000000pt" viewBox="0 0 250.000000 250.000000"
 preserveAspectRatio="xMidYMid meet">
<metadata>
Created by potrace 1.11, written by Peter Selinger 2001-2013
</metadata>
<g transform="translate(0.000000,250.000000) scale(0.100000,-0.100000)"
fill="#000000" stroke="none">
<path d="M0 1250 l0 -1250 1250 0 1250 0 0 1250 0 1250 -1250 0 -1250 0 0
-1250z m1960 460 l0 -150 -220 0 -220 0 0 -105 0 -105 205 0 206 0 -3 -147 -3
-148 -202 -3 -203 -2 0 -125 0 -125 220 0 220 0 0 -150 0 -150 -410 0 -410 0
0 225 0 225 -97 0 c-123 0 -216 20 -294 61 -113 61 -187 159 -214 286 -49 231
32 428 210 509 108 50 142 52 698 53 l517 1 0 -150z"/>
<path d="M968 1544 c-49 -21 -72 -69 -66 -141 8 -93 64 -142 173 -151 l65 -5
0 157 0 156 -67 -1 c-38 0 -85 -7 -105 -15z"/>
</g>
</svg>
